<svg xmlns="http://www.w3.org/2000/svg" xmlns:xlink="http://www.w3.org/1999/xlink" version="1.1" id="Layer_1" x="0px" y="0px" viewBox="0 0 61 21" style="enable-background:new 0 0 61 21;" xml:space="preserve">
<g>
	<path d="M9.6,1.2c-4.4,0-7.9,3.6-7.9,7.9s3.6,7.9,7.9,7.9s7.9-3.6,7.9-7.9S14,1.2,9.6,1.2z M9.6,16.1c-3.8,0-6.9-3.1-6.9-6.9   s3.1-6.9,6.9-6.9s6.9,3.1,6.9,6.9S13.4,16.1,9.6,16.1z"/>
	<rect x="21.7" y="2.4" width="1" height="13.7"/>
	<path d="M39.3,3.9c-0.4-0.4-0.9-0.7-1.6-0.9c-0.7-0.2-1.5-0.3-2.5-0.3h-4.7v13.5h2.2v-5h2.4c1,0,1.8-0.1,2.5-0.3   c0.7-0.2,1.2-0.5,1.6-0.9c0.4-0.4,0.7-0.9,0.8-1.4c0.2-0.5,0.2-1.1,0.2-1.7c0-0.5-0.1-1.1-0.2-1.6C40,4.7,39.7,4.2,39.3,3.9z    M38,7.8c-0.1,0.3-0.2,0.5-0.4,0.7S37,8.9,36.7,9c-0.4,0.1-0.8,0.2-1.4,0.2h-2.4V4.5h2.4c0.6,0,1,0.1,1.4,0.2   c0.4,0.1,0.7,0.2,0.9,0.4c0.2,0.2,0.4,0.4,0.5,0.7c0.1,0.3,0.1,0.6,0.1,1C38.1,7.1,38.1,7.5,38,7.8z"/>
	<path d="M48.8,7.1c-0.3-0.4-0.7-0.6-1.2-0.8C47,6.1,46.4,6,45.6,6c-1.2,0-2.2,0.2-2.8,0.7c-0.7,0.4-1.1,1.1-1.3,2.1l2,0.2   c0.1-0.4,0.3-0.8,0.6-1c0.3-0.2,0.8-0.3,1.5-0.3c0.6,0,1,0.1,1.4,0.4c0.4,0.3,0.5,0.8,0.5,1.5V10L46,10.1c-0.6,0-1.2,0.1-1.8,0.2   c-0.6,0.1-1.1,0.3-1.6,0.5c-0.5,0.2-0.9,0.6-1.2,1c-0.3,0.4-0.5,1-0.5,1.6c0,0.5,0.1,0.9,0.3,1.3c0.2,0.4,0.4,0.7,0.7,0.9   c0.3,0.2,0.6,0.4,1,0.5c0.4,0.1,0.8,0.2,1.3,0.2c0.8,0,1.4-0.1,1.9-0.4c0.5-0.3,1-0.7,1.3-1.1v1.3h2.1V9.9c0-0.6-0.1-1.1-0.2-1.6   C49.3,7.9,49.1,7.4,48.8,7.1z M47.5,12c0,0.8-0.2,1.5-0.7,1.9s-1.1,0.7-2.1,0.7c-0.5,0-0.9-0.1-1.2-0.4c-0.3-0.2-0.4-0.6-0.4-1   c0-0.2,0-0.5,0.1-0.7s0.2-0.4,0.4-0.5s0.5-0.3,0.9-0.4c0.4-0.1,0.9-0.2,1.6-0.2l1.4-0.1V12z"/>
	<path d="M57.6,6.3l-2.5,7.1l-2.7-7.1H50l4.1,9.5l-0.4,0.9c-0.2,0.5-0.4,0.8-0.6,1c-0.2,0.2-0.5,0.3-0.9,0.3c-0.4,0-0.8-0.1-1.1-0.2   l-0.4,1.6c0.3,0.1,0.6,0.2,0.9,0.2c0.3,0,0.6,0.1,0.9,0.1c0.5,0,0.9-0.1,1.3-0.2c0.3-0.2,0.6-0.4,0.9-0.7c0.3-0.3,0.5-0.7,0.7-1.1   c0.2-0.4,0.4-0.9,0.6-1.5L60,6.3H57.6z"/>
</g>
</svg>
